HIERARCHY
ROOT ui
{
	 OFFSET 0 0 0
	 CHANNELS 3 XPosition YPosition Z Position
	 EndSite
	 {
	 OFFSET 0 -1 0
	 }
}
ROOT li
{
	 OFFSET 0 0 0
	 CHANNELS 3 XPosition YPosition Z Position
	 EndSite
	 {
	 OFFSET 0 -1 0
	 }
}
ROOT ul
{
	 OFFSET 0 0 0
	 CHANNELS 3 XPosition YPosition Z Position
	 EndSite
	 {
	 OFFSET 0 -1 0
	 }
}
ROOT ll
{
	 OFFSET 0 0 0
	 CHANNELS 3 XPosition YPosition Z Position
	 EndSite
	 {
	 OFFSET 0 -1 0
	 }
}
ROOT tt
{
	 OFFSET 0 0 0
	 CHANNELS 3 XPosition YPosition Z Position
	 EndSite
	 {
	 OFFSET 0 -1 0
	 }
}
ROOT tb
{
	 OFFSET 0 0 0
	 CHANNELS 3 XPosition YPosition Z Position
	 EndSite
	 {
	 OFFSET 0 -1 0
	 }
}
ROOT td
{
	 OFFSET 0 0 0
	 CHANNELS 3 XPosition YPosition Z Position
	 EndSite
	 {
	 OFFSET 0 -1 0
	 }
}
ROOT v
{
	 OFFSET 0 0 0
	 CHANNELS 3 XPosition YPosition Z Position
	 EndSite
	 {
	 OFFSET 0 -1 0
	 }
}
ROOT bn
{
	 OFFSET 0 0 0
	 CHANNELS 3 XPosition YPosition Z Position
	 EndSite
	 {
	 OFFSET 0 -1 0
	 }
}
MOTION
Frames: 21
Frame Time: 0.002
0.0032131330966949463	-0.0011364279985427858	0		0.47068548583984376	-2.29548583984375	0		-1.092585205078125	0.023071126937866213	0		-0.8211675415039063	-2.2750947265625	0		1.4622879638671875	-0.45141693115234377	0		3.125122314453125	0.06309274291992187	0		4.5299287109375	0.21745423889160156	0		5.57693212890625	0.138763671875	0		-0.37746261596679687	5.8654677734375	0		
0.023835912704467773	-0.007948243141174316	0		0.4366182861328125	-2.280673095703125	0		-1.106772216796875	0.033611953735351564	0		-0.820370849609375	-2.27271142578125	0		1.5019794921875	-0.4533934326171875	0		3.091601806640625	0.04398137283325195	0		4.53268994140625	0.22398634338378906	0		5.57891845703125	0.1518461151123047	0		-0.39305862426757815	5.8560439453125	0		
6.520169973373413E-4	-2.8142601251602173E-4	0		0.4863290710449219	-2.28880224609375	0		-1.0260966796875	0.02809487533569336	0		-0.7876259765625	-2.2776884765625	0		1.4597542724609376	-0.45047332763671877	0		3.1334013671875	0.05001633834838867	0		4.5432646484375	0.21040737915039062	0		5.5709130859375	0.15823104858398437	0		-0.41443331909179687	5.8616767578125	0		
-5.664510130882263E-4	1.2932200729846955E-4	0		0.45617190551757814	-2.288058349609375	0		-1.03730419921875	0.029589372634887694	0		-0.7908071899414062	-2.27927587890625	0		1.4964788818359376	-0.4564442443847656	0		3.11322705078125	0.05471833419799805	0		4.52613037109375	0.21911265563964843	0		5.570046875	0.15918742370605468	0		-0.26261468505859376	5.878384765625	0		
0.01311194896697998	-0.013638846397399903	0		0.490947509765625	-2.298047607421875	0		-1.1044781494140625	0.0296890869140625	0		-0.7919193115234375	-2.2788984375	0		1.454347900390625	-0.45356021118164064	0		3.09901611328125	0.05133233261108398	0		4.5359580078125	0.21949530029296874	0		5.57341845703125	0.1426842041015625	0		-0.39716619873046877	5.8572431640625	0		
0.0042361698150634765	0.007828993797302246	0		0.4409916687011719	-2.288117431640625	0		-1.0986419677734376	0.024969154357910157	0		-0.788933837890625	-2.2745791015625	0		1.4562939453125	-0.44918115234375	0		3.1008740234375	0.048747501373291015	0		4.5287578125	0.212041015625	0		5.579740234375	0.13816795349121094	0		-0.38330282592773435	5.86644921875	0		
0.018036811828613282	-0.0059702138900756836	0		0.4679905090332031	-2.2880517578125	0		-1.0956431884765625	0.02926802635192871	0		-0.8238765869140625	-2.268856689453125	0		1.458291015625	-0.44582098388671876	0		3.136980224609375	0.06276579666137695	0		4.5309287109375	0.23246058654785157	0		5.5777041015625	0.1684313201904297	0		-0.41752664184570315	5.86116943359375	0		
0.002212398052215576	0.00854227066040039	0		0.45409689331054687	-2.283552490234375	0		-1.037560546875	0.034949440002441406	0		-0.7928938598632812	-2.275873291015625	0		1.4922191162109375	-0.4548299560546875	0		3.0958818359375	0.05260952758789063	0		4.53281396484375	0.22085751342773438	0		5.5698994140625	0.1745820770263672	0		-0.4006439514160156	5.8583134765625	0		
-0.005777452945709229	0.0019512779712677001	0		0.45118801879882814	-2.286191162109375	0		-1.1185025634765624	0.03314078140258789	0		-0.8317678833007812	-2.27513818359375	0		1.4503375244140626	-0.45202471923828125	0		3.094967529296875	0.05299200439453125	0		4.53189697265625	0.2212634735107422	0		5.566341796875	0.16327711486816407	0		-0.4157618408203125	5.84879248046875	0		
0.012251953125	-0.008941585540771485	0		0.43332064819335936	-2.29068359375	0		-1.1024298095703124	0.0262523136138916	0		-0.7966057739257812	-2.27723046875	0		1.4904710693359375	-0.4541361999511719	0		3.099040771484375	0.04630006408691406	0		4.520044921875	0.22176837158203125	0		5.569939453125	0.1465546875	0		-0.26836041259765625	5.87947998046875	0		
-0.007413118839263916	0.002561321020126343	0		0.434590576171875	-2.288403076171875	0		-1.142203369140625	0.027957391738891602	0		-0.8573651123046875	-2.277291259765625	0		1.45175927734375	-0.447403076171875	0		3.11448193359375	0.0674668197631836	0		4.5233203125	0.22808860778808593	0		5.57228759765625	0.15924319458007813	0		-0.38935980224609373	5.8690830078125	0		
-0.0010631409883499145	0.009761020660400391	0		0.4529848937988281	-2.28032763671875	0		-1.0289583740234376	0.02497361183166504	0		-0.79400634765625	-2.272725830078125	0		1.4510400390625	-0.4471048583984375	0		3.105646484375	0.05787768936157227	0		4.53359033203125	0.22831263732910156	0		5.56886474609375	0.1478287811279297	0		-0.39017324829101563	5.86935400390625	0		
0.0010949100255966187	-0.006014400959014892	0		0.4503291015625	-2.28204296875	0		-1.1175009765625	0.0371728630065918	0		-0.83262744140625	-2.271067138671875	0		1.4883115234375	-0.453240966796875	0		3.1079345703125	0.054146812438964846	0		4.52192041015625	0.22875482177734374	0		5.56709619140625	0.177855712890625	0		-0.424978515625	5.86497509765625	0		
0.00542976713180542	-0.010833788871765136	0		0.47469482421875	-2.287073486328125	0		-1.046159912109375	0.03260879135131836	0		-0.7992623901367187	-2.2762138671875	0		1.4846749267578125	-0.4559525146484375	0		3.120365966796875	0.05828360366821289	0		4.5282412109375	0.22297738647460938	0		5.5637548828125	0.16636062622070313	0		-0.2573878479003906	5.89037451171875	0		
-0.009972697257995605	0.003540673017501831	0		0.44719290161132813	-2.284561767578125	0		-1.144764404296875	0.028872255325317384	0		-0.8727291870117188	-2.27021923828125	0		1.443138671875	-0.454275146484375	0		3.090767822265625	0.05485258483886719	0		4.521595703125	0.2153153839111328	0		5.56756201171875	0.14944119262695313	0		-0.40734967041015624	5.8612041015625	0		
0.008404122352600098	-0.0074749431610107425	0		0.46756396484375	-2.298593505859375	0		-1.106280517578125	0.027625625610351562	0		-0.7873295288085937	-2.28197216796875	0		1.4487279052734374	-0.4461336975097656	0		3.095188232421875	0.04802516555786133	0		4.52024267578125	0.22956867980957033	0		5.57140673828125	0.13246942138671874	0		-0.3918353576660156	5.86921533203125	0		
0.014027992248535156	-3.7120801210403445E-4	0		0.43733059692382814	-2.280095703125	0		-1.098646240234375	0.035697216033935546	0		-0.8326163940429687	-2.2683232421875	0		1.4892562255859374	-0.4483955383300781	0		3.1179951171875	0.07197232818603516	0		4.52877734375	0.22868243408203126	0		5.5768994140625	0.15691864013671875	0		-0.4254049987792969	5.86373876953125	0		
-0.011331134796142579	0.004049623966217041	0		0.47489483642578123	-2.284354736328125	0		-1.044031982421875	0.0372443733215332	0		-0.8010844116210938	-2.275524658203125	0		1.4827794189453125	-0.45517108154296876	0		3.089407958984375	0.0554456672668457	0		4.52631787109375	0.2238817901611328	0		5.56239453125	0.16798976135253907	0		-0.42782257080078123	5.865908203125	0		
0.0031560330390930174	-0.009979031562805175	0		0.4544541015625	-2.29200341796875	0		-1.124420166015625	0.03524224472045898	0		-0.803461181640625	-2.27737158203125	0		1.479376953125	-0.4590019836425781	0		3.0730595703125	0.05675885391235352	0		4.5149580078125	0.22414401245117188	0		5.56633984375	0.1508292236328125	0		-0.40825103759765624	5.86082373046875	0		
-0.012011941909790038	0.004301362991333007	0		0.4721930847167969	-2.2860810546875	0		-1.1247406005859375	0.03536305618286133	0		-0.8037861328125	-2.277251220703125	0		1.43806884765625	-0.45744189453125	0		3.093651123046875	0.048644474029541016	0		4.52563720703125	0.224134765625	0		5.56190869140625	0.16842782592773436	0		-0.40856036376953125	5.860943359375	0		
-0.008263493537902832	0.007364898204803467	0		0.42988699340820313	-2.286521240234375	0		-1.147088134765625	0.029715808868408203	0		-0.8260933837890625	-2.27790087890625	0		1.4438685302734375	-0.44940911865234373	0		3.07760693359375	0.07090496063232422	0		4.518419921875	0.2302899169921875	0		5.56588427734375	0.14595465087890624	0		-0.39470111083984377	5.870900390625	0		
